# xmcd CD database file
#
# Track frame offsets:
#	150
#	20105
#	38329
#	52086
#	67506
#	91764
#	107260
#	130873
#	158619
#	174394
#	198462
#	224049
#	250000
#
# Disc length: 3673 seconds
#
# Revision: 0
# Processed by: cddbd v1.5.2PL0 Copyright (c) Steve Scherf et al.
# Submitted via: CDex 1.51
#
DISCID=a10e570d
DTITLE=Diana Krall - From This Moment On
DYEAR=2006
DGENRE=Jazz
TTITLE0=It Could Happen To You
TTITLE1=Isn't This A Lovely Day
TTITLE2=How Insensitive
TTITLE3=Exactly Like You
TTITLE4=From This Moment On
TTITLE5=I Was Doing All Right
TTITLE6=Little Girl Blue
TTITLE7=Day In Day Out
TTITLE8=Willow Weep For Me
TTITLE9=Come Dance With Me
TTITLE10=It Was A Beautiful Day In August
TTITLE11=The Boulevard Of Broken Dreams
TTITLE12=I'm Walkin'
EXTD=YEAR: 2006
EXTT0=
EXTT1=
EXTT2=
EXTT3=
EXTT4=
EXTT5=
EXTT6=
EXTT7=
EXTT8=
EXTT9=
EXTT10=
EXTT11=
EXTT12=
PLAYORDER=
